<?xml version="1.0" encoding="UTF-8"?>
<svg xmlns="http://www.w3.org/2000/svg" xmlns:xlink="http://www.w3.org/1999/xlink" viewBox="0 0 100 100">
  <defs>
    <style>
      .cls-1 {
        fill: url(#linear-gradient-2);
      }

      .cls-2 {
        fill: url(#linear-gradient-6);
      }

      .cls-3 {
        isolation: isolate;
      }

      .cls-4 {
        fill: url(#_Áåçûìÿííûé_ãðàäèåíò_13);
      }

      .cls-5 {
        fill: url(#linear-gradient-5);
      }

      .cls-6 {
        fill: url(#linear-gradient-9);
        mix-blend-mode: screen;
      }

      .cls-7 {
        fill: url(#linear-gradient-7);
      }

      .cls-8 {
        fill: url(#linear-gradient-3);
      }

      .cls-9 {
        fill: url(#linear-gradient);
      }

      .cls-10 {
        fill: url(#linear-gradient-4);
      }

      .cls-11 {
        fill: url(#linear-gradient-8);
      }
    </style>
    <linearGradient id="linear-gradient" x1="58.41" y1="18.94" x2="58.43" y2="18.94" gradientUnits="userSpaceOnUse">
      <stop offset="0" stop-color="#ec008c"/>
      <stop offset="1" stop-color="#55003d"/>
    </linearGradient>
    <linearGradient id="linear-gradient-2" x1="20.91" y1="45.43" x2="58.41" y2="45.43" xlink:href="#linear-gradient"/>
    <linearGradient id="linear-gradient-3" x1="28.85" y1="52.63" x2="59.82" y2="52.63" xlink:href="#linear-gradient"/>
    <linearGradient id="linear-gradient-4" x1="34.81" y1="55.33" x2="68.65" y2="55.33" xlink:href="#linear-gradient"/>
    <linearGradient id="linear-gradient-5" x1="26.73" y1="23.8" x2="52.99" y2="23.8" xlink:href="#linear-gradient"/>
    <linearGradient id="linear-gradient-6" x1="5" y1="50" x2="94.24" y2="50" xlink:href="#linear-gradient"/>
    <linearGradient id="_Áåçûìÿííûé_ãðàäèåíò_13" data-name="Áåçûìÿííûé ãðàäèåíò 13" x1="75.05" y1="38.19" x2="86.67" y2="38.19" gradientUnits="userSpaceOnUse">
      <stop offset="0" stop-color="#000"/>
      <stop offset=".33" stop-color="#000"/>
      <stop offset=".67" stop-color="#000"/>
      <stop offset="1" stop-color="#000"/>
    </linearGradient>
    <linearGradient id="linear-gradient-7" x1="90.28" y1="44.8" x2="93.09" y2="51.18" gradientUnits="userSpaceOnUse">
      <stop offset="0" stop-color="#b3245e"/>
      <stop offset=".23" stop-color="#b42660"/>
      <stop offset=".37" stop-color="#b72d68"/>
      <stop offset=".49" stop-color="#bd3877"/>
      <stop offset=".59" stop-color="#c6498b"/>
      <stop offset=".66" stop-color="#ce599e"/>
      <stop offset=".78" stop-color="#cd569b"/>
      <stop offset=".85" stop-color="#cb5093"/>
      <stop offset=".91" stop-color="#c94484"/>
      <stop offset=".96" stop-color="#c53470"/>
      <stop offset="1" stop-color="#c2255e"/>
    </linearGradient>
    <linearGradient id="linear-gradient-8" x1="-2069.27" y1="-3287.82" x2="-2067.84" y2="-3287.82" gradientTransform="translate(817.32 3861.25) rotate(137) scale(1 -1)" xlink:href="#linear-gradient-7"/>
    <linearGradient id="linear-gradient-9" x1="-2069.08" y1="-3287.82" x2="-2068.37" y2="-3287.82" gradientTransform="translate(817.32 3861.25) rotate(137) scale(1 -1)" gradientUnits="userSpaceOnUse">
      <stop offset="0" stop-color="#aaa"/>
      <stop offset="1" stop-color="#872d58"/>
    </linearGradient>
  </defs>
  <g class="cls-3">
    <g id="Layer_1" data-name="Layer 1">
      <g>
        <g>
          <path class="cls-9" d="M58.41,18.97s.02-.06,.02-.06c0,.02-.01,.04-.02,.06Z"/>
          <path class="cls-1" d="M45.83,37.77c3.96-3.2,9.38-7.43,12.58-18.81-.28,.94-4.42,13.98-20.31,20.34-15.31,6.12-15.79-7.05-15.68-9.65,.16-3.58,2.18-8.38,5.1-10.75,0,0-6.87,3.54-6.61,14.13,.29,11.76,11.83,9.54,11.83,9.54,0,0-17.68,11.21-6.61,29.37,0,0-5.57-12.25,1.67-20.88,7.24-8.63,14.06-10.09,18.03-13.29Z"/>
          <path class="cls-8" d="M32.4,66.1c-.97-10.65,5.64-15.59,10.23-20.05,4.59-4.45,16.95-11.97,17.19-27.14,0,0-1.53,10.86-14.27,20.46-12.74,9.61-16.84,14.41-16.7,23.6,.14,9.19,7.45,19.35,16.22,23.39,0,0-11.69-9.61-12.67-20.25Z"/>
          <path class="cls-10" d="M67.19,40.12c-2.56-1.31-3.86-4.96-3.86-4.96,0,0,2.01-.31,2.64-.7,.63-.39-1.24,.4-2.47-.3,0,0,3.93-9.67-1.97-15.24,0,0,1.67,9.05-12.22,23.14-13.89,14.09-16.6,18.02-13.15,28.4,3.45,10.38,20.88,21.3,20.88,21.3,0,0-12.63-12.74-13.68-17.23-1.04-4.49-.1-12.84,5.95-17.33,6.06-4.49,5.67-.52,10.51,.1,4.84,.63,3.38-3.45,3.22-4.44-.16-.99,1.2-1.72,1.67-1.84s1.31-1.48-.3-2.05c-1.6-.57,.21-.87,.78-.97,.57-.1,1.32-1.41,.33-2.18-.99-.77-.05-1.51,1.44-2.23,1.5-.71,2.78-2.16,.22-3.46Z"/>
        </g>
        <path class="cls-5" d="M50.4,12.38c-.48,.74-.13,1.45,.33,1.98,.31,.36,.49,1.22,.17,2.79-.32,1.62-.91,2.94-.91,2.94,0,0-3.33-1.61-3.68-2.7-.3-.94,.45-2.12-.74-2.86-.85-.53-2.03,.03-1.86,1.35,.11,.87,1.26,1.25,1.25,2.3,0,1.06-.28,2.75-.84,4.37,0,0-5.28-1.43-5.65-2.69-.34-1.15-1.25-2.52-2.32-1.8-.94,.88,.18,2.08,1.23,2.67,1.15,.65,1.34,6.11,1.34,6.11-1.7,.18-3.42,.05-4.45-.18-1.03-.23-1.14-1.43-1.96-1.74-1.24-.46-2.06,.56-1.73,1.51,.45,1.33,1.77,.86,2.62,1.37,.98,.59,1.8,4.19,1.8,4.19,0,0-1.42,.27-3.07,.22-1.6-.05-2.4-.42-2.68-.8-.42-.56-1.03-1.07-1.86-.77-.95,.35-1.14,2.4,1.18,2.15,2.65-.28,8.94,2.86,8.94,2.86-.36-.74-2.98-2.3-2.98-2.3,8.02-2.77,4.51-11.67,4.51-11.67,0,0,7.87,5.44,12.39-1.75,0,0,.93,2.91,1.56,3.42,0,0-1.63-6.83-.76-9.35,.76-2.2-1.28-2.48-1.83-1.63Zm-14.06,18.7c-.24-.78-1.23-2.84-1.23-2.84,.65,.09,3.14,.04,3.14,.04-.15,2.03-1.91,2.8-1.91,2.8Zm9.29-8.67s.61-2.42,.67-3.07c0,0,1.78,1.43,2.49,1.85,0,0-1.16,1.54-3.16,1.22Z"/>
        <path class="cls-2" d="M51.2,94.54c-23.76,0-43.02-19.26-43.02-43.02S27.45,8.51,51.2,8.51s42.98,19.23,43.01,42.95c.02-.49,.03-.97,.03-1.46,0-24.64-19.98-44.62-44.62-44.62S5,25.36,5,50s19.98,44.62,44.62,44.62c1.1,0,2.19-.04,3.26-.12-.56,.02-1.12,.04-1.68,.04Z"/>
        <path class="cls-4" d="M86.56,40.1l-2.15-2.3-4.92-5.27s0,0,0,0l-.15-.16c-.16-.17-.43-.18-.61-.02l-.37,.34s0,0,0,0l-3.03,2.82s0,0,0,0l-.16,.15c-.17,.16-.18,.43-.02,.61l.15,.16s0,0,0,0l6.91,7.41s0,0,0,0l.15,.16c.16,.17,.43,.18,.61,.02l.16-.15s0,0,0,0l3.23-3.01s0,0,0,0l.16-.15c.17-.16,.18-.43,.02-.61Zm-2.94,3.18l-.68,.63c-.2,.19-.32,.07-.4-.01l-7.12-7.63c-.14-.16-.18-.52,.02-.71l.53-.49c.2-.19,.32-.07,.4,.02l7.27,7.79c.08,.09,.19,.22-.01,.4Zm2.74-2.56l-1.52,1.41c-.2,.19-.32,.07-.4-.01l-7.27-7.79c-.08-.09-.19-.22,.01-.4l1.36-1.27c.2-.19,.56-.13,.7,.03l7.12,7.63c.08,.09,.19,.22-.01,.4Z"/>
        <path class="cls-7" d="M94.84,51.64c-.68-.43-2.38-1.57-3.66-2.95l-.57,.53c1.28,1.37,2.3,3.15,2.68,3.85,.09,.17,.31,.23,.48,.12,.18-.11,.41-.28,.63-.48,.21-.2,.39-.42,.52-.59,.12-.16,.08-.38-.09-.49Zm-1.07,1.29c-.25,.11-.17,.34-1.1-1.11-.92-1.45-1.23-1.77-1.36-1.91-.12-.14-.06-.23,.23,.13,.29,.37,1.63,2.23,1.91,2.48,.29,.25,.52,.32,.31,.41Zm.83-.69c-.23,.27-.17,.05-.39-.24-.22-.3-2.03-1.87-2.3-2.22-.27-.35-.23-.32-.15-.26,.07,.06,.96,.87,1.88,1.6,.92,.73,.74,.41,1.03,.59,.29,.18,.14,.3-.06,.54Z"/>
        <path class="cls-11" d="M91.39,49.48c.29-.27,.3-.72,.04-1.01l-6.14-6.59-1.05,.98,6.14,6.59c.27,.29,.72,.3,1.01,.03Z"/>
        <path class="cls-6" d="M91.32,49.15c.14-.13,.15-.36,.02-.51l-5.9-6.33c-.05-.06-.14-.06-.2,0l-.31,.29c-.06,.05-.06,.15,0,.2l5.9,6.33c.13,.14,.36,.15,.51,.02Z"/>
      </g>
    </g>
  </g>
</svg>